<svg width="20" height="24" viewBox="0 0 20 24" fill="none" xmlns="http://www.w3.org/2000/svg">
<g clip-path="url(#clip0_1117_128)">
<path d="M18.8948 10.6139C18.8948 14.6918 15.241 18.9299 12.3531 21.9152C11.1015 23.2092 8.99375 23.2494 7.71631 21.9805C4.70742 18.9918 1.00003 14.7216 1.00003 10.6139C1.00003 5.30429 4.62579 1 9.9474 1C15.269 1 18.8948 5.30429 18.8948 10.6139Z" stroke="white"/>
<path d="M13.3892 9.88522C13.3892 11.7726 11.8485 13.3027 9.94789 13.3027C8.04731 13.3027 6.50659 11.7726 6.50659 9.88522C6.50659 7.99782 8.04731 6.46777 9.94789 6.46777C11.8485 6.46777 13.3892 7.99782 13.3892 9.88522Z" stroke="white"/>
</g>
<defs>
<clipPath id="clip0_1117_128">
<rect width="20" height="24" fill="white"/>
</clipPath>
</defs>
</svg>
