<svg width="150" height="41" viewBox="0 0 150 41" fill="none" xmlns="http://www.w3.org/2000/svg">
<g clip-path="url(#clip0_923_313)">
<path fill-rule="evenodd" clip-rule="evenodd" d="M53.5432 5.51912C50.8339 5.51912 48.3708 6.85617 46.3625 8.90883C43.8615 11.5641 41.7774 14.6525 40.129 18.174C38.4617 21.6956 36.7376 25.1606 34.9566 28.5315C33.1757 31.9212 30.8073 34.746 27.8517 37.0058C24.896 39.2468 20.8604 40.4332 15.7448 40.5273C10.4208 40.4143 6.46098 39.3598 3.8653 37.3448C1.28857 35.3298 -0.0187436 32.957 0.00020302 30.1887C0.151776 23.5788 6.40414 19.6806 12.6376 19.6994C20.3109 19.6994 24.555 26.686 19.3447 31.5634C15.3848 35.2921 8.0525 33.8232 8.03355 29.9251C8.0146 27.3639 11.3113 26.5353 11.3113 27.4958C11.3113 27.9477 10.5345 27.7217 10.2882 27.7217C8.8672 27.7217 7.37042 30.2829 9.6819 31.9965C12.0502 33.7479 16.4079 32.731 18.7005 30.6407C25.9381 24.0119 15.309 16.8747 5.30524 24.106C0.341241 27.6841 -0.70082 33.0135 4.20634 37.0058C9.24613 41.1299 18.0942 40.1884 23.1908 36.4785C26.0138 34.4258 28.4958 31.8082 30.6179 28.6257C32.7399 25.4619 34.824 22.204 36.9081 18.8708C39.6175 14.483 43.6531 9.13481 48.0108 6.68668C49.4129 5.89575 50.8149 5.36846 52.2359 5.06715L52.4443 4.86001C48.1245 3.18398 42.5921 1.99758 37.4765 2.05408C31.4705 2.24239 26.8285 3.67361 23.5508 6.31005C14.5133 13.5979 19.572 20.7352 25.1423 20.6598C31.5841 20.6033 37.0408 12.3362 33.8009 9.49261C31.0536 7.06332 25.0665 10.6602 24.9149 14.1252C24.8771 14.7843 25.1991 15.5376 25.957 15.5753C26.677 15.5753 26.7717 16.2344 26.1275 16.2155C24.3276 16.1402 23.2098 12.5057 26.4875 9.73743C30.1253 6.68668 35.544 7.66594 35.5629 12.3739C35.544 14.3324 34.6914 16.272 33.0241 18.1929C29.7463 21.9404 23.0582 22.3924 19.5341 18.626C17.9805 16.95 17.1847 15.0291 17.1469 12.8823C17.09 10.0764 18.4163 7.42112 21.1446 4.9165C25.3886 1.03716 34.5019 0.265059 41.3985 1.4138C44.9225 2.01641 48.295 2.97683 51.4212 3.80543C55.8168 4.973 56.2905 4.01258 57.3515 3.95608C58.2041 3.89959 57.7872 6.02757 56.3094 6.00874C55.6084 6.00874 54.68 5.55678 53.5432 5.51912ZM48.9581 40.4897C47.4803 40.4897 46.1162 39.8682 44.8467 38.6065C43.5963 37.3448 42.9142 35.3298 42.8195 32.5803V26.234C42.8195 25.2924 42.63 24.3132 42.2511 23.2586C41.4174 20.9988 40.3375 21.6956 39.9775 21.6956C39.5796 21.7144 39.2764 21.0365 39.6175 20.6787C40.2806 20.0384 40.4322 21.4696 43.4447 20.4339C45.4341 19.7371 46.5898 19.1345 48.3519 17.7033C55.8358 11.6018 63.2818 0.152069 73.6266 0.359218C78.6853 0.472209 76.3359 2.84501 75.5402 2.80735C74.1381 2.73202 74.5929 -0.0739118 69.6478 1.88459C66.6163 3.08982 63.6607 5.7451 61.3303 7.92958C56.9157 12.0537 52.7475 16.4792 47.4045 19.3793C46.5519 19.8312 45.5288 20.2455 44.3352 20.6222C43.691 20.8293 42.3079 21.1871 41.6069 21.3378C44.2783 22.6372 45.6614 24.106 46.4004 27.3639C46.8172 29.2283 47.0256 31.7329 47.0256 34.859C47.0824 39.4163 49.6781 40.904 51.6675 38.776C54.0737 36.2337 53.5432 34.2564 54.4148 34.181C55.2295 34.1245 54.0358 36.2902 53.2211 37.6837C52.2548 39.3409 50.8339 40.2825 48.9581 40.4897ZM68.3973 22.0346C65.8017 22.543 63.3954 24.9723 61.1597 29.2471C58.943 33.5408 57.7683 36.535 57.6357 38.2299C57.5788 39.3974 58.6209 40.4332 59.8524 40.3202C62.3913 39.7741 64.7785 37.3259 67.0142 32.9946C69.2499 28.6822 70.4246 25.6879 70.5762 24.0119C70.6141 22.769 69.591 22.0346 68.3973 22.0346ZM68.2836 21.6014C71.2393 21.6014 72.2435 24.1249 72.1488 26.9873C71.7888 33.4843 66.5406 40.4897 59.7577 40.6403C56.9157 40.6592 55.9494 37.8909 56.0442 35.1791C56.4231 28.9081 61.766 21.6956 68.2836 21.6014ZM80.2389 21.8651C83.7062 21.8651 80.201 30.1134 79.6516 31.6011C81.281 29.5296 82.9862 27.4393 84.7672 25.2924C86.5481 23.1456 88.1396 21.9781 89.5796 21.8086C92.1563 21.6579 90.0722 26.5353 88.3102 26.6483C87.2681 26.7048 87.7039 25.2171 87.3818 24.8028C87.0597 24.3885 86.245 24.7652 85.9608 24.9911C84.5019 26.1399 82.8725 28.3432 80.8642 31.168C78.9506 33.8421 77.037 36.987 75.1234 40.5838H74.9528C74.8581 39.5669 73.5129 39.7929 72.8308 40.0942C72.414 40.2825 72.1298 40.5838 71.7319 40.5838C73.5129 37.6649 80.921 25.9892 80.9968 23.2398C81.0347 22.0346 80.0495 22.0911 79.1969 22.6183C77.7759 23.5034 75.957 25.9139 75.4644 26.7802C74.7444 28.0984 74.1381 28.3055 74.176 27.9666C74.2897 27.5146 75.0097 26.4412 76.3549 24.7463C77.719 23.0515 79.0074 22.0911 80.2389 21.8651ZM93.2552 26.8743C95.4341 24.6898 100.853 20.0949 103.827 19.9631C106.556 19.8312 103.695 24.8028 102.198 22.4865C100.872 20.415 97.234 23.9554 97.2908 26.7237C97.3287 29.7932 99.8107 31.5446 99.8486 34.4823C99.9055 39.1903 92.4405 42.2222 88.8975 39.5104C86.1882 37.4389 88.007 31.7517 91.3227 31.6387C92.99 31.5823 93.4826 33.5972 92.3458 34.5953C91.0195 35.7629 90.9627 34.5577 89.8638 34.5577C88.4049 34.5577 87.2681 37.3071 88.9922 39.002C90.6595 40.6592 94.0131 40.113 95.4909 37.4201C98.1055 32.6933 95.7941 29.2471 96.8551 25.4054C97.0445 24.7087 97.3287 24.1437 97.7266 23.6729C96.0214 24.9723 94.752 26.0457 93.9373 26.8931C91.7774 29.0965 92.1563 27.9666 92.5921 27.5146C92.8005 27.3074 93.0089 27.0815 93.2552 26.8743ZM116.938 14.4265C117.81 14.3889 118.435 14.0122 118.966 13.4473H119.174L114.002 22.3547L117.677 22.3735C117.905 22.43 118.037 23.0515 116.882 23.0515H113.433C110.951 27.4393 107.351 33.1265 105.4 37.1C103.695 40.565 105.703 40.7533 106.935 39.8871C109.587 38.0039 111.33 33.7479 111.861 34.4823C112.107 34.8213 111.387 35.7064 110.572 36.7233C109.417 38.2299 107.693 40.6027 105.76 40.6403C104.225 40.678 103.638 39.1149 103.619 37.6461C103.581 34.6707 106.101 30.6783 107.674 27.9101C108.488 26.4788 109.417 24.8593 110.459 23.0515C109.966 23.0515 107.408 23.1456 107.124 22.995C106.84 22.8443 106.973 22.3547 107.541 22.3547H110.876L115.783 13.5603H115.953C115.915 14.1629 116.218 14.3889 116.938 14.4265ZM127.549 22.0346C124.953 22.543 122.547 24.9723 120.33 29.2471C118.094 33.5408 116.919 36.535 116.787 38.2299C116.73 39.3974 117.753 40.4332 119.004 40.3202C121.542 39.7741 123.93 37.3259 126.165 32.9946C128.401 28.6822 129.576 25.6879 129.727 24.0119C129.765 22.769 128.742 22.0346 127.549 22.0346ZM127.435 21.6014C130.391 21.6014 131.395 24.1249 131.3 26.9873C131.054 31.2621 129.519 34.5953 126.715 36.987C123.892 39.3786 121.277 40.5838 118.909 40.6403C116.067 40.6592 115.12 37.8909 115.195 35.1791C115.461 30.9231 117.033 27.6088 119.875 25.236C122.736 22.8443 125.256 21.6203 127.435 21.6014ZM137.439 23.3528C136.397 24.5015 135.639 25.4996 135.184 26.3847C134.54 27.6464 133.763 28.1172 133.82 27.5523C133.896 26.799 136.302 23.6164 137.647 22.7125C139.655 21.3754 141.02 22.4112 140.982 24.6145C140.925 26.9685 139.75 30.0004 138.746 32.2602C140.091 30.264 141.683 28.1172 143.52 25.8009C145.358 23.5034 146.893 22.2417 148.124 22.0346C149.64 22.0722 149.981 23.8236 149.981 25.0288C149.943 28.5503 146.457 32.8628 144.6 35.8947C142.459 39.4351 144.335 41.6007 146.779 38.9455C147.878 37.7591 148.541 36.8175 148.788 36.1584C149.204 35.0285 149.924 34.8966 149.887 35.3674C149.792 35.8006 149.186 36.7233 148.106 38.098C145.188 41.7326 142.441 40.8098 142.441 36.4408C142.441 33.7856 144.07 31.168 145.586 28.9835C146.419 27.7971 147.139 26.7237 147.802 25.7632C150.247 22.204 148.428 19.4923 141.796 28.8705C138.992 32.8251 136.586 36.6857 134.54 40.4897H134.275C133.687 38.5877 131.357 40.4708 131.092 40.5273H130.883C133.176 36.9305 139.902 26.3282 139.996 23.5223C139.996 21.8651 138.196 22.5995 137.439 23.3528Z" fill="#FEFEFE"/>
</g>
<defs>
<clipPath id="clip0_923_313">
<rect width="150" height="41" fill="white"/>
</clipPath>
</defs>
</svg>
