<svg width="38" height="38" viewBox="0 0 38 38" fill="none" xmlns="http://www.w3.org/2000/svg">
<path fill-rule="evenodd" clip-rule="evenodd" d="M37.5 18.75C37.5 29.1053 29.1053 37.5 18.75 37.5C8.39466 37.5 0 29.1053 0 18.75C0 8.39466 8.39466 0 18.75 0C29.1053 0 37.5 8.39466 37.5 18.75ZM19.4219 13.8421C17.5982 14.6006 13.9533 16.1706 8.4873 18.5521C7.5997 18.9051 7.13474 19.2504 7.09242 19.588C7.02088 20.1586 7.73545 20.3833 8.70852 20.6893C8.84088 20.7309 8.97802 20.774 9.11862 20.8197C10.076 21.1309 11.3638 21.495 12.0332 21.5095C12.6405 21.5226 13.3183 21.2722 14.0666 20.7584C19.1736 17.311 21.8099 15.5685 21.9754 15.5309C22.0922 15.5044 22.254 15.4711 22.3637 15.5685C22.4733 15.666 22.4625 15.8505 22.4509 15.9C22.3801 16.2018 19.5752 18.8095 18.1236 20.1591C17.6711 20.5798 17.3501 20.8782 17.2845 20.9463C17.1375 21.099 16.9877 21.2434 16.8437 21.3822C15.9543 22.2396 15.2873 22.8826 16.8806 23.9325C17.6463 24.4371 18.2589 24.8543 18.8702 25.2706C19.5377 25.7251 20.2035 26.1786 21.065 26.7433C21.2845 26.8871 21.4941 27.0366 21.6982 27.1821C22.4751 27.7359 23.173 28.2335 24.0353 28.1542C24.5363 28.108 25.0538 27.6369 25.3166 26.2318C25.9378 22.9112 27.1588 15.7164 27.4409 12.7515C27.4657 12.4918 27.4346 12.1593 27.4096 12.0134C27.3846 11.8675 27.3324 11.6596 27.1427 11.5056C26.9181 11.3234 26.5713 11.2849 26.4162 11.2876C25.7109 11.3001 24.629 11.6763 19.4219 13.8421Z" fill="black"/>
</svg>
