<svg width="37" height="37" viewBox="0 0 37 37" fill="none" xmlns="http://www.w3.org/2000/svg">
<path d="M37 18.5C37 28.7173 28.7173 37 18.5 37C8.28274 37 6.90066e-06 28.7173 6.90066e-06 18.5C6.90066e-06 8.28273 8.28274 0 18.5 0C28.7173 0 37 8.28273 37 18.5Z" fill="black"/>
<path d="M22.2274 8H18.8568V21.6232C18.8568 23.2464 17.5605 24.5797 15.9472 24.5797C14.3339 24.5797 13.0376 23.2464 13.0376 21.6232C13.0376 20.029 14.3051 18.7246 15.8608 18.6667V15.2464C12.4326 15.3043 9.66699 18.1159 9.66699 21.6232C9.66699 25.1594 12.4902 28 15.976 28C19.4618 28 22.285 25.1304 22.285 21.6232V14.6377C23.5526 15.5652 25.1082 16.1159 26.7503 16.1449V12.7246C24.2152 12.6377 22.2274 10.5507 22.2274 8Z" fill="#81D8D0"/>
</svg>
