<svg width="40" height="40" viewBox="0 0 40 40" fill="none" xmlns="http://www.w3.org/2000/svg">
<g clip-path="url(#clip0_923_325)">
<path fill-rule="evenodd" clip-rule="evenodd" d="M2.76137 2.76137C0 5.52274 0 9.96706 0 18.8558V20.4271C0 29.3159 0 33.7601 2.76137 36.5216C5.52274 39.2829 9.96706 39.2829 18.8558 39.2829H20.4271C29.3159 39.2829 33.7601 39.2829 36.5216 36.5216C39.2829 33.7601 39.2829 29.3159 39.2829 20.4271V18.8558C39.2829 9.96706 39.2829 5.52274 36.5216 2.76137C33.7601 0 29.3159 0 20.4271 0H18.8558C9.96706 0 5.52274 0 2.76137 2.76137ZM8.67119 11.9486C7.55032 11.9486 6.6397 12.8728 6.74133 13.989C7.55937 22.9741 12.5618 28.3001 20.9019 28.3001C21.1821 28.3001 21.4094 28.0729 21.4094 27.7927V24.6657C21.4094 23.4828 22.4526 22.5379 23.5433 22.9957C25.3311 23.746 26.7501 25.1733 27.6367 26.9503C28.0247 27.7279 28.7749 28.3001 29.6439 28.3001H30.2107C31.5309 28.3001 32.4894 27.0336 31.8952 25.8547C31.1552 24.3862 30.2079 23.2034 29.2358 22.2796C28.0646 21.1664 27.9576 18.8577 29.0235 17.6433C29.859 16.6914 30.6296 15.5421 31.1783 14.2302C31.6581 13.083 30.7119 11.9486 29.4685 11.9486H29.1416C28.2467 11.9486 27.4771 12.5523 27.1068 13.367C26.2857 15.1737 24.951 16.7605 23.4845 17.6581C22.4701 18.2789 21.4094 17.3765 21.4094 16.1872V13.9486C21.4094 12.8441 20.5139 11.9486 19.4094 11.9486H19.1863C18.0817 11.9486 17.1863 12.8441 17.1863 13.9486V20.7137C17.1863 22.0148 15.9392 22.9282 14.9286 22.1087C13.2236 20.7259 11.6698 18.1423 11.2314 13.9063C11.1193 12.8229 10.242 11.9486 9.15279 11.9486H8.67119Z" fill="#010101"/>
</g>
<defs>
<clipPath id="clip0_923_325">
<rect width="39.2829" height="39.2829" rx="19.6415" fill="white"/>
</clipPath>
</defs>
</svg>
